<?xml version="1.0" encoding="utf-8"?>
<!-- Generator: Adobe Illustrator 23.0.4, SVG Export Plug-In . SVG Version: 6.00 Build 0)  -->
<svg version="1.1" baseProfile="tiny" id="Layer_1" xmlns="http://www.w3.org/2000/svg" xmlns:xlink="http://www.w3.org/1999/xlink"
	 x="0px" y="0px" viewBox="0 0 340 320" xml:space="preserve">
<g>
	<path fill="#FCFCFC" d="M171.5,238c-52.83,0-105.67-0.04-158.5,0.1c-3.43,0.01-4.11-0.67-4.1-4.1c0.14-49.17,0.13-98.33,0.01-147.5
		c-0.01-2.98,0.6-3.58,3.58-3.58c106,0.1,212,0.1,318,0c2.98,0,3.59,0.6,3.58,3.58c-0.12,49.33-0.12,98.67,0,148
		c0.01,2.98-0.6,3.59-3.58,3.58C277.5,237.97,224.5,238,171.5,238z M47.89,135.24c0.41-0.07,0.83-0.15,1.24-0.22
		c0.31,0.32,0.75,0.59,0.9,0.98c10.67,28.56,26.41,54.64,39.93,81.8c1.41,2.84,2.91,4.2,6.37,4.04c7.48-0.35,14.99-0.29,22.48-0.03
		c3.53,0.12,4.98-0.52,4.85-4.52c-0.32-9.82-0.1-19.65-0.1-29.48c0-28.15-0.08-56.3,0.1-84.44c0.03-3.85-1.04-4.81-4.72-4.6
		c-5.64,0.32-11.33,0.32-16.98,0c-3.49-0.2-4,1.17-3.97,4.23c0.16,17.15,0.12,34.31,0.13,51.46c0.01,9.64,0,19.28,0,28.21
		c-11.18-27.27-26.5-53.4-40.03-80.44c-1.02-2.03-1.88-3.52-4.67-3.45c-8.82,0.21-17.65,0.17-26.48,0.02
		c-2.48-0.04-2.99,0.79-2.99,3.11c0.07,38.81,0.07,77.61,0,116.42c0,2.52,0.55,3.53,3.28,3.46c6.49-0.18,12.99-0.18,19.48,0
		c2.82,0.08,3.25-1.13,3.21-3.56c-0.35-22.47,0.57-44.96-0.68-67.43C48.95,145.61,49.04,140.39,47.89,135.24z M180.52,225.27
		c16.17-0.9,32.11-4.25,41.61-21.43c4.95-8.96,5.15-23.25-0.73-31.77c-4.93-7.14-11.64-12.15-19.21-16.15
		c-8.33-4.4-17.49-7.02-25.52-12.1c-5.26-3.32-8.19-8.35-6.99-13.1c1.34-5.3,5.9-8.45,12.49-8.7c8.29-0.31,15.47,2.45,21.08,8.43
		c2.66,2.83,3.75,2.27,5.79-0.44c3.37-4.47,7.09-8.69,10.82-12.87c3.24-3.63,3.21-4.91-0.97-7.47c-5.91-3.62-11.73-6.89-18.76-8.72
		c-14.21-3.69-27.64-2.72-40.09,4.37c-23.97,13.65-24.36,43.69-1.21,58.63c5.6,3.61,11.66,6.32,17.73,9
		c5.46,2.42,11.02,4.63,15.96,8.07c3.73,2.6,6.64,5.81,6.16,10.66c-0.51,5.18-4.05,8.3-8.6,9.97c-2.81,1.03-5.97,1.19-9.04,0.91
		c-10.05-0.92-18.96-4.45-25.95-11.91c-2.56-2.73-3.81-2.34-5.7,0.68c-3.44,5.49-7.26,10.73-11.04,16
		c-1.35,1.89-1.68,2.82,0.59,4.68C150.72,221.7,164.49,224.82,180.52,225.27z M259.92,127.45c0,1.91,0.04,3.01-0.01,4.11
		c-1.11,28.65-0.74,57.31-0.9,85.97c-0.02,3.38,0.66,4.69,4.32,4.5c5.98-0.32,12-0.2,17.99-0.04c2.65,0.07,3.77-0.47,3.76-3.48
		c-0.1-38.5-0.09-76.99-0.01-115.49c0-2.51-0.5-3.51-3.25-3.43c-6.83,0.19-13.66,0.1-20.5,0.04c-1.76-0.02-3.18,0.5-4.6,1.5
		c-6.26,4.4-12.55,8.74-18.88,13.04c-1.54,1.05-2.44,1.82-1.28,3.93c2.86,5.25,5.52,10.61,8.01,16.05c1.2,2.62,2.37,1.98,4.13,0.75
		C252.18,132.46,255.77,130.19,259.92,127.45z M294.67,207.59c-0.21,8.41,5.35,14.43,13.57,14.7c8.53,0.28,15.03-5.55,15.26-13.7
		c0.25-8.53-5.52-14.51-14.56-15.1C301.33,192.99,294.88,199.37,294.67,207.59z"/>
	<path fill="#222020" d="M47.89,135.24c1.16,5.16,1.06,10.37,1.36,15.56c1.26,22.47,0.33,44.95,0.68,67.43
		c0.04,2.42-0.39,3.64-3.21,3.56c-6.49-0.18-12.99-0.18-19.48,0c-2.73,0.08-3.29-0.94-3.28-3.46c0.07-38.81,0.07-77.61,0-116.42
		c0-2.33,0.51-3.15,2.99-3.11c8.82,0.15,17.66,0.19,26.48-0.02c2.8-0.07,3.66,1.42,4.67,3.45c13.52,27.04,28.85,53.17,40.03,80.44
		c0-8.93,0.01-18.57,0-28.21c-0.02-17.15,0.02-34.31-0.13-51.46c-0.03-3.06,0.48-4.43,3.97-4.23c5.64,0.32,11.33,0.32,16.98,0
		c3.68-0.21,4.75,0.75,4.72,4.6c-0.18,28.15-0.1,56.29-0.1,84.44c0,9.83-0.21,19.66,0.1,29.48c0.13,4-1.32,4.65-4.85,4.52
		c-7.49-0.26-15-0.32-22.48,0.03c-3.46,0.16-4.96-1.21-6.37-4.04c-13.52-27.16-29.26-53.24-39.93-81.8
		c-0.14-0.38-0.59-0.65-0.9-0.98C48.71,135.09,48.3,135.16,47.89,135.24z"/>
	<path fill="#222020" d="M180.52,225.27c-16.03-0.45-29.8-3.57-41.59-13.25c-2.26-1.86-1.94-2.79-0.59-4.68
		c3.77-5.27,7.6-10.51,11.04-16c1.89-3.02,3.14-3.41,5.7-0.68c6.99,7.46,15.9,10.99,25.95,11.91c3.07,0.28,6.23,0.13,9.04-0.91
		c4.55-1.67,8.09-4.8,8.6-9.97c0.48-4.85-2.44-8.06-6.16-10.66c-4.94-3.44-10.5-5.65-15.96-8.07c-6.07-2.69-12.13-5.39-17.73-9
		c-23.15-14.94-22.76-44.98,1.21-58.63c12.45-7.09,25.88-8.06,40.09-4.37c7.03,1.83,12.85,5.1,18.76,8.72
		c4.18,2.56,4.21,3.84,0.97,7.47c-3.73,4.18-7.45,8.4-10.82,12.87c-2.04,2.71-3.14,3.28-5.79,0.44c-5.61-5.98-12.79-8.74-21.08-8.43
		c-6.59,0.25-11.15,3.39-12.49,8.7c-1.2,4.75,1.74,9.78,6.99,13.1c8.03,5.07,17.19,7.7,25.52,12.1c7.58,4,14.28,9.01,19.21,16.15
		c5.88,8.52,5.68,22.81,0.73,31.77C212.63,221.02,196.69,224.38,180.52,225.27z"/>
	<path fill="#222020" d="M259.92,127.45c-4.15,2.74-7.73,5.01-11.21,7.44c-1.76,1.23-2.93,1.87-4.13-0.75
		c-2.49-5.43-5.16-10.8-8.01-16.05c-1.15-2.12-0.26-2.89,1.28-3.93c6.33-4.29,12.63-8.64,18.88-13.04c1.42-1,2.84-1.52,4.6-1.5
		c6.83,0.07,13.67,0.16,20.5-0.04c2.75-0.08,3.25,0.91,3.25,3.43c-0.07,38.5-0.09,76.99,0.01,115.49c0.01,3.01-1.11,3.56-3.76,3.48
		c-5.99-0.16-12.01-0.28-17.99,0.04c-3.66,0.2-4.34-1.12-4.32-4.5c0.16-28.66-0.2-57.32,0.9-85.97
		C259.95,130.46,259.92,129.36,259.92,127.45z"/>
	<path fill="#EB1470" d="M294.67,207.59c0.2-8.22,6.65-14.6,14.27-14.1c9.04,0.59,14.81,6.58,14.56,15.1
		c-0.24,8.15-6.73,13.98-15.26,13.7C300.03,222.02,294.47,216,294.67,207.59z"/>
</g>
</svg>
